<svg width="32" height="32" viewBox="0 0 32 32" fill="none" xmlns="http://www.w3.org/2000/svg">
<path d="M16 32C24.8366 32 32 24.8366 32 16C32 7.16344 24.8366 0 16 0C7.16344 0 0 7.16344 0 16C0 24.8366 7.16344 32 16 32Z" fill="#292E33"/>
<path d="M20.4804 18.652C20.1626 18.4657 19.7721 18.4696 19.4559 18.6574L17.8547 19.6114C17.4963 19.8251 17.0486 19.8 16.7199 19.5433C16.1518 19.0996 15.2369 18.353 14.441 17.5571C13.6451 16.7612 12.8985 15.8463 12.4547 15.2782C12.1981 14.9495 12.173 14.5018 12.3867 14.1434L13.3407 12.5422C13.5293 12.226 13.5308 11.8324 13.3446 11.5146L10.9952 7.50144C10.7675 7.11327 10.3151 6.92231 9.87764 7.02953C9.45269 7.13283 8.90095 7.38483 8.32261 7.96396C6.51166 9.7749 5.54985 12.8294 12.3601 19.6396C19.1703 26.4498 22.224 25.4888 24.0357 23.6771C24.6156 23.0971 24.8668 22.5446 24.9709 22.1189C25.0766 21.6822 24.8888 21.233 24.5014 21.006C23.5341 20.4402 21.4476 19.2186 20.4804 18.652Z" fill="white"/>
</svg>
