<svg width="120" height="40" viewBox="0 0 120 40" fill="none" xmlns="http://www.w3.org/2000/svg">
<g clip-path="url(#clip0)">
<path d="M110.135 3.00293e-07H9.53468C9.16798 3.00293e-07 8.80568 3.00352e-07 8.43995 0.0020003C8.1338 0.0040003 7.83009 0.0098103 7.521 0.0147003C6.84951 0.0226021 6.17961 0.0816766 5.5171 0.19141C4.85552 0.303533 4.21467 0.514916 3.61622 0.81841C3.0185 1.12447 2.47235 1.52217 1.99757 1.99707C1.5203 2.47064 1.12246 3.01802 0.81935 3.61816C0.5154 4.21711 0.304641 4.85894 0.19435 5.52148C0.0830109 6.18319 0.0230984 6.85252 0.01515 7.52348C0.00587 7.83008 0.00489 8.1377 0 8.44434V31.5586C0.00489 31.8691 0.00587 32.1699 0.01515 32.4805C0.0231008 33.1514 0.0830134 33.8207 0.19435 34.4824C0.304336 35.1453 0.515108 35.7875 0.81935 36.3867C1.12233 36.9849 1.52022 37.5301 1.99757 38.001C2.47054 38.478 3.01705 38.876 3.61622 39.1797C4.21467 39.484 4.85545 39.6966 5.5171 39.8105C6.17972 39.9194 6.84956 39.9785 7.521 39.9873C7.83009 39.9941 8.1338 39.998 8.43995 39.998C8.80567 40 9.168 40 9.53468 40H110.135C110.494 40 110.859 40 111.219 39.998C111.523 39.998 111.836 39.9941 112.141 39.9873C112.811 39.9789 113.479 39.9198 114.141 39.8105C114.804 39.6958 115.448 39.4833 116.049 39.1797C116.647 38.8758 117.193 38.4778 117.666 38.001C118.142 37.5282 118.541 36.9835 118.848 36.3867C119.15 35.7871 119.358 35.1449 119.467 34.4824C119.578 33.8206 119.64 33.1515 119.652 32.4805C119.656 32.1699 119.656 31.8691 119.656 31.5586C119.664 31.1953 119.664 30.834 119.664 30.4648V9.53613C119.664 9.16992 119.664 8.80664 119.656 8.44434C119.656 8.1377 119.656 7.83008 119.652 7.52344C119.64 6.85242 119.578 6.18324 119.467 5.52144C119.358 4.85928 119.149 4.2175 118.848 3.61812C118.23 2.4152 117.252 1.43603 116.049 0.81832C115.448 0.515568 114.804 0.304241 114.141 0.19132C113.48 0.0811031 112.811 0.0220081 112.141 0.0145603C111.836 0.0096803 111.523 0.0038203 111.219 0.0018703C110.859 -0.0001297 110.494 -0.0001297 110.135 -0.0001297V3.00293e-07Z" fill="#A6A6A6"/>
<path d="M8.44483 39.125C8.14015 39.125 7.84283 39.1211 7.54054 39.1143C6.91432 39.1061 6.28957 39.0516 5.6714 38.9512C5.09499 38.8519 4.5366 38.6673 4.01466 38.4033C3.4975 38.1415 3.02581 37.7983 2.61766 37.3867C2.2036 36.98 1.85888 36.5082 1.59715 35.9902C1.33254 35.4688 1.14941 34.9099 1.05415 34.333C0.951273 33.7131 0.895613 33.0863 0.887649 32.458C0.881309 32.2471 0.873009 31.5449 0.873009 31.5449V8.44434C0.873009 8.44434 0.881849 7.75293 0.887699 7.5498C0.895325 6.92248 0.950661 6.29665 1.05323 5.67773C1.14867 5.09925 1.33194 4.53875 1.59669 4.01563C1.85745 3.49794 2.20026 3.02586 2.61183 2.61768C3.02293 2.20562 3.49613 1.8606 4.01417 1.59521C4.53491 1.33209 5.09224 1.14873 5.66749 1.05127C6.28769 0.949836 6.91461 0.894996 7.543 0.88721L8.44532 0.875H111.214L112.127 0.8877C112.75 0.895099 113.371 0.94945 113.985 1.05029C114.566 1.14898 115.13 1.33362 115.656 1.59814C116.694 2.13299 117.539 2.97916 118.071 4.01807C118.332 4.53758 118.512 5.09351 118.606 5.66699C118.71 6.29099 118.768 6.92174 118.78 7.5542C118.783 7.8374 118.783 8.1416 118.783 8.44434C118.791 8.81934 118.791 9.17627 118.791 9.53613V30.4648C118.791 30.8281 118.791 31.1826 118.783 31.54C118.783 31.8652 118.783 32.1631 118.779 32.4697C118.768 33.0909 118.71 33.7104 118.608 34.3232C118.515 34.9043 118.333 35.4675 118.068 35.9932C117.805 36.5056 117.462 36.9733 117.053 37.3789C116.644 37.7927 116.172 38.1379 115.653 38.4014C115.128 38.6674 114.566 38.8527 113.985 38.9512C113.367 39.0522 112.742 39.1067 112.116 39.1143C111.823 39.1211 111.517 39.125 111.219 39.125L110.135 39.127L8.44483 39.125Z" fill="black"/>
<path d="M63.1031 12.4663C62.2617 12.4663 61.5524 12.1496 60.9914 11.5262C60.4351 10.9202 60.1245 10.0848 60.1384 9.23192C60.1384 8.3217 60.4258 7.55112 60.9914 6.94015C61.55 6.31671 62.2593 6 63.1008 6C63.9329 6 64.6422 6.31671 65.2124 6.94015C65.778 7.57107 66.0654 8.34165 66.0654 9.23192C66.0562 10.1446 65.7687 10.9152 65.2124 11.5237C64.6538 12.1521 63.9445 12.4663 63.1031 12.4663ZM38.0668 12.4663C37.2439 12.4663 36.5299 12.1546 35.9458 11.5387C35.3663 10.9252 35.0719 10.1496 35.0719 9.23441C35.0719 8.3192 35.3663 7.54364 35.9458 6.93018C36.5184 6.31421 37.2323 6.00249 38.0668 6.00249C38.4747 6.00249 38.8711 6.08978 39.2512 6.26683C39.6244 6.4389 39.9281 6.67332 40.1529 6.9601L40.2086 7.03242L39.5804 7.69576L39.5155 7.61347C39.1608 7.1596 38.6856 6.93766 38.0575 6.93766C37.4965 6.93766 37.0074 7.15212 36.6041 7.57606C36.1985 8.00249 35.9922 8.5611 35.9922 9.23691C35.9922 9.91272 36.1985 10.4713 36.6041 10.8978C37.0074 11.3217 37.4965 11.5362 38.0575 11.5362C38.6555 11.5362 39.1585 11.3217 39.5502 10.8978C39.782 10.6484 39.9258 10.2993 39.9768 9.85786H37.9624V8.92519H40.8414L40.8529 9.00998C40.8738 9.16708 40.8947 9.32918 40.8947 9.4788C40.8947 10.3392 40.6536 11.0349 40.1761 11.5486C39.6337 12.1571 38.9244 12.4663 38.0668 12.4663ZM71.355 12.3342H70.4672L67.7483 7.65337L67.7715 8.49626V12.3317H66.8837V6.13466H67.8966L67.9244 6.18205L70.4811 10.591L70.458 9.75062V6.13466H71.355V12.3342V12.3342ZM56.432 12.3342H55.5326V7.06733H53.9726V6.13466H57.9896V7.06733H56.4297V12.3342H56.432ZM53.2401 12.3342H52.3431V6.13466H53.2401V12.3342ZM48.1986 12.3342H47.3015V7.06733H45.7415V6.13466H49.7586V7.06733H48.1986V12.3342ZM45.1736 12.3242H41.7338V6.13466H45.1736V7.06733H42.6331V8.76808H44.9256V9.69077H42.6331V11.3915H45.1736V12.3242ZM61.6497 10.8853C62.0507 11.3167 62.5375 11.5337 63.1031 11.5337C63.6849 11.5337 64.1601 11.3217 64.5564 10.8853C64.9505 10.4613 65.1498 9.90524 65.1498 9.23441C65.1498 8.56359 64.9505 8.00499 64.5588 7.58354C64.1577 7.15212 63.6687 6.93516 63.1054 6.93516C62.5236 6.93516 62.0484 7.14713 61.6544 7.58354C61.2603 8.00748 61.0609 8.56359 61.0609 9.23441C61.0609 9.90524 61.258 10.4638 61.6497 10.8853Z" fill="white"/>
<path fill-rule="evenodd" clip-rule="evenodd" d="M60.055 20.99C57.8645 20.99 56.0889 22.7781 56.0889 25.2444C56.0889 27.6883 57.8761 29.4988 60.055 29.4988C62.2455 29.4988 64.021 27.6983 64.021 25.2444C64.021 22.7781 62.2455 20.99 60.055 20.99ZM60.055 27.813C58.8566 27.813 57.8251 26.7456 57.8251 25.2344C57.8251 23.7008 58.8589 22.6559 60.055 22.6559C61.2534 22.6559 62.2849 23.7008 62.2849 25.2344C62.2872 26.7556 61.2534 27.813 60.055 27.813ZM51.402 20.99C49.2115 20.99 47.436 22.7781 47.436 25.2444C47.436 27.6883 49.2231 29.4988 51.402 29.4988C53.5925 29.4988 55.368 27.6983 55.368 25.2444C55.368 22.7781 53.5902 20.99 51.402 20.99ZM51.402 27.813C50.2036 27.813 49.1721 26.7456 49.1721 25.2344C49.1721 23.7008 50.2059 22.6559 51.402 22.6559C52.6004 22.6559 53.6319 23.7008 53.6319 25.2344C53.6319 26.7556 52.6004 27.813 51.402 27.813ZM41.1056 22.2893V24.0898H45.1226C44.9998 25.0998 44.6892 25.8454 44.214 26.3566C43.6252 26.99 42.7166 27.6783 41.1149 27.6783C38.6462 27.6783 36.7154 25.5337 36.7154 22.8778C36.7154 20.222 38.6462 18.0773 41.1149 18.0773C42.4477 18.0773 43.4189 18.6434 44.1398 19.3666L45.3266 18.0898C44.3252 17.0574 42.9924 16.2668 41.1241 16.2668C37.7376 16.2668 34.8958 19.2344 34.8958 22.8678C34.8958 26.5112 37.7353 29.4688 41.1241 29.4688C42.953 29.4688 44.3252 28.8255 45.4101 27.6135C46.5157 26.424 46.8657 24.7457 46.8657 23.3915C46.8657 22.9701 46.8356 22.591 46.773 22.2693H41.1033C41.1056 22.2668 41.1056 22.2893 41.1056 22.2893ZM83.2207 23.6908C82.8893 22.7357 81.8879 20.9801 79.8342 20.9801C77.799 20.9801 76.1069 22.7033 76.1069 25.2344C76.1069 27.6235 77.7805 29.4888 80.0312 29.4888C81.8392 29.4888 82.8916 28.2993 83.325 27.601L81.9829 26.6334C81.5379 27.3442 80.919 27.8105 80.0405 27.8105C79.1527 27.8105 78.5315 27.3766 78.1189 26.5212L83.4062 24.1646C83.4062 24.1671 83.2207 23.6908 83.2207 23.6908ZM77.8291 25.1122C77.7874 23.4688 79.0159 22.6334 79.8945 22.6334C80.5875 22.6334 81.1647 23 81.3617 23.5337L77.8291 25.1122ZM73.534 29.2344H75.2701V16.7357H73.534V29.2344ZM70.6829 21.9352H70.6203C70.2285 21.4339 69.4845 20.9801 68.5341 20.9801C66.5615 20.9801 64.7442 22.8479 64.7442 25.2469C64.7442 27.6359 66.5522 29.4813 68.5341 29.4813C69.4729 29.4813 70.2285 29.025 70.6203 28.5137H70.6829V29.1247C70.6829 30.7481 69.8762 31.6235 68.5758 31.6235C67.5119 31.6235 66.8513 30.8005 66.5824 30.1122L65.0734 30.7905C65.5068 31.9127 66.6635 33.3018 68.5735 33.3018C70.6087 33.3018 72.3332 32.0125 72.3332 28.8678V21.2344H70.6921V21.9352C70.6944 21.9352 70.6829 21.9352 70.6829 21.9352ZM68.6894 27.813C67.491 27.813 66.4896 26.7357 66.4896 25.2469C66.4896 23.7456 67.491 22.6584 68.6894 22.6584C69.8762 22.6584 70.7964 23.7581 70.7964 25.2469C70.808 26.7357 69.8785 27.813 68.6894 27.813ZM91.3498 16.7357H87.1984V29.2344H88.9345V24.5013H91.3522C93.2738 24.5013 95.1629 23.0025 95.1629 20.6235C95.1629 18.2444 93.2807 16.7357 91.3498 16.7357ZM91.4008 22.7556H88.9322V18.4663H91.4008C92.7012 18.4663 93.436 19.621 93.436 20.611C93.436 21.591 92.692 22.7556 91.4008 22.7556ZM102.121 20.9676C100.86 20.9676 99.5601 21.5686 99.0223 22.8778L100.561 23.5661C100.893 22.8778 101.5 22.6434 102.142 22.6434C103.042 22.6434 103.95 23.222 103.971 24.2544V24.3865C103.661 24.197 102.979 23.9077 102.163 23.9077C100.501 23.9077 98.816 24.8853 98.816 26.7182C98.816 28.3965 100.179 29.4738 101.697 29.4738C102.863 29.4738 103.505 28.9077 103.906 28.2519H103.969V29.2195H105.642V24.4314C105.642 22.202 104.103 20.9676 102.121 20.9676ZM101.904 27.813C101.336 27.813 100.541 27.5137 100.541 26.7456C100.541 25.7781 101.533 25.4115 102.379 25.4115C103.144 25.4115 103.505 25.5885 103.96 25.8329C103.834 26.9551 102.954 27.803 101.904 27.813ZM111.748 21.2344L109.755 26.6559H109.692L107.627 21.2344H105.758L108.857 28.813L107.091 33.025H108.899L113.667 21.2344H111.748ZM96.1202 29.2344H97.8564V16.7357H96.1202V29.2344Z" fill="white"/>
<path fill-rule="evenodd" clip-rule="evenodd" d="M6.42419 6.76808C6.1553 7.0798 6 7.55611 6 8.17955V30.2918C6 30.9152 6.1553 31.3915 6.43346 31.6908L6.50532 31.7581L18.021 19.3691V19.0923L6.49604 6.70074L6.42419 6.76808Z" fill="url(#paint0_linear)"/>
<path fill-rule="evenodd" clip-rule="evenodd" d="M21.8526 23.5112L18.0117 19.3791V19.0898L21.8526 14.9576L21.936 15.0125L26.4792 17.7905C27.7796 18.5786 27.7796 19.8803 26.4792 20.6783L21.936 23.4564L21.8526 23.5112Z" fill="url(#paint1_linear)"/>
<path fill-rule="evenodd" clip-rule="evenodd" d="M21.936 23.4564L18.0117 19.2344L6.42421 31.7008C6.8484 32.1895 7.56002 32.2444 8.35508 31.7681L21.936 23.4564Z" fill="url(#paint2_linear)"/>
<path fill-rule="evenodd" clip-rule="evenodd" d="M21.936 15.0125L8.35508 6.71322C7.56002 6.22444 6.84608 6.29178 6.42421 6.78055L18.0117 19.2344L21.936 15.0125Z" fill="url(#paint3_linear)"/>
<path opacity="0.2" fill-rule="evenodd" clip-rule="evenodd" d="M21.8526 23.3666L8.36432 31.611C7.61098 32.0773 6.93877 32.0449 6.50531 31.621L6.43346 31.6983L6.50531 31.7656C6.93877 32.187 7.61098 32.2219 8.36432 31.7556L21.9453 23.4564L21.8526 23.3666Z" fill="black"/>
<path opacity="0.12" fill-rule="evenodd" clip-rule="evenodd" d="M26.4792 20.5337L21.841 23.3666L21.9244 23.4564L26.4677 20.6783C27.119 20.2793 27.4389 19.7556 27.4389 19.2344C27.3995 19.7132 27.068 20.1671 26.4792 20.5337Z" fill="black"/>
<path opacity="0.25" fill-rule="evenodd" clip-rule="evenodd" d="M8.35505 6.85787L26.4792 17.9352C27.068 18.2918 27.3995 18.7581 27.4505 19.2344C27.4505 18.7132 27.1306 18.1895 26.4792 17.7905L8.35505 6.71323C7.05467 5.91273 6 6.58106 6 8.17956V8.3242C6 6.7232 7.05467 6.06734 8.35505 6.85787Z" fill="white"/>
</g>
<defs>
<linearGradient id="paint0_linear" x1="16.988" y1="7.94098" x2="-1.62589" y2="12.551" gradientUnits="userSpaceOnUse">
<stop stop-color="#00A0FF"/>
<stop offset="0.00657" stop-color="#00A1FF"/>
<stop offset="0.2601" stop-color="#00BEFF"/>
<stop offset="0.5122" stop-color="#00D2FF"/>
<stop offset="0.7604" stop-color="#00DFFF"/>
<stop offset="1" stop-color="#00E3FF"/>
</linearGradient>
<linearGradient id="paint1_linear" x1="28.175" y1="19.2345" x2="5.68393" y2="19.2345" gradientUnits="userSpaceOnUse">
<stop stop-color="#FFE000"/>
<stop offset="0.4087" stop-color="#FFBD00"/>
<stop offset="0.7754" stop-color="#FFA500"/>
<stop offset="1" stop-color="#FF9C00"/>
</linearGradient>
<linearGradient id="paint2_linear" x1="19.8022" y1="21.5318" x2="3.33861" y2="47.2879" gradientUnits="userSpaceOnUse">
<stop stop-color="#FF3A44"/>
<stop offset="1" stop-color="#C31162"/>
</linearGradient>
<linearGradient id="paint3_linear" x1="3.50635" y1="-0.586791" x2="10.8519" y2="10.917" gradientUnits="userSpaceOnUse">
<stop stop-color="#32A071"/>
<stop offset="0.0685" stop-color="#2DA771"/>
<stop offset="0.4762" stop-color="#15CF74"/>
<stop offset="0.8009" stop-color="#06E775"/>
<stop offset="1" stop-color="#00F076"/>
</linearGradient>
<clipPath id="clip0">
<rect width="119.664" height="40" fill="white"/>
</clipPath>
</defs>
</svg>
